<svg width="0" height="0" class="hidden"><symbol xmlns="http://www.w3.org/2000/svg" id="build-status-static" stroke="currentColor" viewBox="0 0 38 38"><g fill="none" fill-rule="evenodd"><g stroke-width="4" transform="translate(1 1)"><circle cx="18" cy="18" r="16" stroke-opacity="1"/></g></g></symbol><symbol xmlns="http://www.w3.org/2000/svg" id="build-status-in-progress" stroke="currentColor" viewBox="0 0 40 40"><g fill="none" fill-rule="evenodd"><g stroke-width="4" transform="translate(1 1)"><circle cx="19" cy="19" r="18" stroke-opacity=".4"/><path d="M37 19c0-9.94-8.06-18-18-18"/></g></g></symbol><symbol xmlns="http://www.w3.org/2000/svg" id="last-failed" viewBox="0 0 24 24"><g id="Group" stroke="currentColor" stroke-width="3"><path d="M8,0 L0,8 L8,0 Z" transform="translate(8.000000, 8.000000)"/><path d="M8,0 L0,8 L8,0 Z" transform="translate(8.000000, 8.000000) translate(4.000000, 4.000000) scale(-1, 1) translate(-4.000000, -4.000000)"/></g></symbol><symbol xmlns="http://www.w3.org/2000/svg" id="last-successful" viewBox="0 0 24 24"><title>last-build-successful</title><path d="M10.843 16.894L6.6 12.65l2.121-2.121 2.121 2.121 4.951-4.95 2.122 2.121-7.072 7.073z"/></symbol><svg xmlns="http://www.w3.org/2000/svg" id="last-unstable" viewBox="0 0 24 24"><g stroke="currentColor" stroke-width="1"><circle cx="12" cy="16.5" r="1"/><path d="M11 6.5h2v6h-2z"/></g></svg><symbol xmlns="http://www.w3.org/2000/svg" id="last-aborted" viewBox="0 0 24 24"><g fill="none" fill-rule="evenodd" stroke="currentColor" stroke-width="2"><path d="M19.3961792,4.5 L4.5,19.3961792 L19.3961792,4.5 Z"/><path d="M19.3961792,4.5 L4.5,19.3961792 L19.3961792,4.5 Z" transform="translate(11.948090, 11.948090) scale(-1, 1) translate(-11.948090, -11.948090)"/></g></symbol><symbol xmlns="http://www.w3.org/2000/svg" id="last-disabled" viewBox="0 0 28 28"><g fill="none" fill-rule="evenodd" stroke="currentColor" stroke-width="3"><path d="M18.4085057,9.72715652 L9.75138867,18.3842736 L18.4085057,9.72715652 Z" transform="translate(14.079947, 14.055715) rotate(-5.000000) translate(-14.079947, -14.055715)"/></g></symbol><symbol xmlns="http://www.w3.org/2000/svg" id="never-built" viewBox="0 0 24 24"><g fill="none" fill-rule="evenodd" stroke="none" stroke-width="1"><circle id="Oval-Copy-10" cx="7.357" cy="12.037" r="1.857" fill="currentColor"/><circle id="Oval-Copy-11" cx="16.643" cy="12.037" r="1.857" fill="currentColor"/><circle id="Oval-Copy-12" cx="12" cy="12.037" r="1.857" fill="currentColor"/></g></symbol></svg>